<?xml version="1.0" encoding="utf-8"?>
<!-- Generator: Adobe Illustrator 19.0.0, SVG Export Plug-In . SVG Version: 6.00 Build 0)  -->
<svg version="1.1" id="Layer_1" xmlns="http://www.w3.org/2000/svg" xmlns:xlink="http://www.w3.org/1999/xlink" x="0px" y="0px"
	 viewBox="0 0 960 560" style="enable-background:new 0 0 960 560;" xml:space="preserve">
<style type="text/css">
	.st0{fill:#2C68A3;}
	.st1{fill:#021B3A;}
</style>
<g id="XMLID_35_">
	<g id="XMLID_160_">
		<g id="XMLID_59_">
			<path id="XMLID_68_" class="st0" d="M366.2,219.8c-0.3-1.9-1.8-3.1-2.7-4.6c-3-4.9-5-10.2-5.7-15.9c-0.9-7,1.2-12.6,7.5-16.6
				c6.9-4.3,14.3-7.7,21.6-11.2c4.6-2.2,9.2-4.3,13.9-6.5c1.7-0.8,2.8-1.8,2.9-4c0.2-3,0.1-6,0.2-9.1c0.2-3.6,3.5-7.6,6.9-8.3
				c0.9-0.2,1.3,0.5,1.8,1c2.2,2.1,2.5,2,3.6-0.9c1.3-3.5,3.1-6.8,5.1-10c2.4-3.8,5.9-6.1,9.9-7.9c1.9-0.9,3.6-0.5,5.1,0.7
				c2,1.7,4,3.5,5.9,5.3c3.9,3.6,7.4,2.9,9.1-2.1c1.9-5.8,4.1-11.5,6.4-17.2c2-4.9,3.9-5.9,8.9-4.3c7.7,2.5,15.5,4,23.7,3.7
				c2.3-0.1,4.5-0.9,6.8-0.6c1,0.1,2.3-0.4,2.8,0.5c0.4,0.9-0.6,1.8-1.1,2.6c-2.7,4.5-5.3,8.9-8.1,13.3c-1.2,1.8-1.1,3,0.8,4.3
				c7.7,5.1,15.4,10.1,23.4,14.6c3.7,2.1,6,1.2,7.8-2.5c3.2-6.5,4.3-13.5,4.8-20.7c0.5-6.4,0.7-12.8,2.7-18.9
				c0.6-1.8,1.5-3.5,2.4-5.2c0.9-1.7,2.1-2,3.2,0c2.2,3.9,3.8,8.1,5.1,12.4c1.1,3.9,2,8,2.9,12c0.3,1.4,0.7,2,2.3,1.9
				c3.7-0.2,7.3,2.4,8.4,6.1c1.9,6.3,3.9,12.5,5.2,19c0.6,3,1.4,5.4,5.2,5.8c4.3,0.5,7,3.7,9.4,6.9c7.9,10.3,16.1,20.4,23.5,31
				c3.2,4.6,4.8,9.4,2.5,14.9c-0.9,2.1-0.8,4.2,0,6.4c1.3,3.3,0.5,6.7-0.5,9.9c-2.8,8.3-8.1,15.2-13.2,22.2
				c-3.5,4.8-6.9,9.7-8.7,15.4c-1.5,4.9-5.2,7-9.9,7.3c-3.5,0.2-6.5,1.3-9.5,3.1c-3.5,2.1-3.7,2-6.5-0.8c-0.8-0.8-1.6-1.5-2.3-2.3
				c-1-1.1-2.2-1.3-3.4-0.5c-3.2,2-6.2,2.1-9.4,0c-1.4-0.9-2.9-1.6-4.4-2.3c-3.3-1.5-5.4-4-6.4-7.4c-0.2-0.7-0.1-1.5-0.9-1.9
				c-0.7-4.4-0.7-8.9-0.1-13.4c0.6-4.7,3.4-8.4,5.1-12.6c1.6-4,4.3-6.8,8.1-8.9c3.9-2.1,7.4-4.5,10.2-8.1c4.9-6.3,7.2-13.7,8.6-21.4
				c0.3-1.9,1-2.7,3.2-2.8c5.7-0.3,11.2-1.6,16.3-4.3c5.9-3.2,6.6-4.6,4.1-10.6c-3.4-8.2-9.3-14.1-17.6-17c-3.2-1.1-3.9-2.7-4.3-5.6
				c-0.8-5.9-3.3-11-9-13.9c-1.4-0.7-2.6-1-3.4,0.7c-0.7,1.4-1.7,1.5-2.9,0.8c-0.9-0.5-1.9-0.8-2.7-1.4c-1.6-1.1-2.6-0.7-3.4,1
				c-3.3,6.7-4.3,13.2,0.8,19.5c0.7,0.8,0.9,1.5,0.3,2.4c-3.9,5-7.5,10.4-12.8,14.1c-2,1.3-3.8,1.7-6-0.1c-3-2.5-6.2-4.8-9.5-7
				c-7.1-4.8-14.7-8-23.3-8.8c-11.8-1.1-22.2,3-32,9.2c-8.9,5.6-16.7,12.8-24.6,19.6c-9.5,8.2-19.5,15.8-31.1,20.8
				C388.3,215.7,377.8,219.9,366.2,219.8z"/>
			<path id="XMLID_67_" class="st1" d="M452.4,357.2c0,4.3,0,7.8,0,11.2c0,16.8,0,33.5,0.1,50.3c0,1.9-0.3,2.5-2.3,2.4
				c-8.3-0.1-16.7-0.1-25,0c-1.8,0-2.5-0.3-2.5-2.4c0.1-37.1,0-74.2,0-111.3c0-1.7,0.3-2.4,2.2-2.3c8.2,0.1,16.3,0,24.5-0.1
				c1.5,0,2.3,0.5,3.2,1.6c15,19.6,30,39.2,45,58.8c0.5,0.7,0.9,1.6,2,1.8c0.5-0.8,0.2-1.8,0.2-2.6c0-19,0.1-37.9,0-56.9
				c0-2.2,0.6-2.7,2.7-2.7c8.3,0.1,16.7,0.1,25-0.1c2.3,0,2.9,0.6,2.9,2.9c-0.1,27.9-0.1,55.9-0.2,83.8c0,9.1,0,18.1,0.1,27.2
				c0,1.6-0.3,2.2-2,2.2c-8.7-0.1-17.4-0.1-26.1,0c-1.2,0-1.9-0.4-2.7-1.4c-14.4-19.8-28.9-39.6-44.1-58.9
				C454.6,359.8,453.7,358.8,452.4,357.2z"/>
			<path id="XMLID_66_" class="st1" d="M363.2,422.2c-17.7,0.3-32.1-4.6-45.2-13.4c-1.9-1.3-2-2.2-0.9-4.1c3.8-6.4,7.4-12.9,11-19.5
				c0.8-1.5,1.3-2,3-0.7c6.9,5.5,14.7,9.4,23.5,10.8c4.5,0.7,9.2,0.8,13.6-0.3c3.3-0.8,5.5-3.2,6-6.7c0.4-3.2-1.5-5.2-4-6.6
				c-5.2-3-11.1-4-16.7-5.9c-6.3-2.2-12.9-3.8-19-6.5c-10.8-4.7-16.9-13-17.9-24.6c-1.1-12.2,2.3-22.9,11.9-31.2
				c6.1-5.3,13.4-8,21.4-9.2c6.8-1,13.5-0.3,20.2,0.4c11,1.3,21,5.2,30.4,11c1.6,1,1.8,1.7,0.8,3.4c-3.9,6.4-7.8,12.9-11.5,19.5
				c-1,1.7-1.6,1.3-2.9,0.5c-6.2-4.1-12.7-7.6-20-9.6c-4.2-1.2-8.4-0.7-12.5-0.2c-3.7,0.4-6.8,3.8-7.2,6.9c-0.5,3.5,1.3,6.7,5.5,8.2
				c7.9,3,16,5.5,24,8.3c7.1,2.5,14.4,4.7,20.3,9.7c6.2,5.3,9.4,12.2,9.7,20.3c0.2,7-0.7,13.8-4.2,20c-4.9,8.9-12.7,14-22.1,17
				C374.1,421.9,367.8,422.5,363.2,422.2z"/>
			<path id="XMLID_63_" class="st1" d="M550.7,363c0-18.4,0-36.8-0.1-55.2c0-2.2,0.5-2.7,2.7-2.7c16.2,0.1,32.4-0.1,48.6,0
				c8.5,0.1,16.8,1.7,24.3,6.2c9.7,5.8,15.4,14.4,16.7,25.5c1.3,10.4-0.2,20.3-6.5,29.1c-7.7,10.7-18.1,16.1-31.1,17.2
				c-7.7,0.6-15.4,0.4-23,0.3c-1.9,0-2.5,0.4-2.4,2.4c0.1,10.9,0,21.8,0.1,32.7c0,2.1-0.6,2.6-2.6,2.5c-8.2-0.1-16.3-0.1-24.5,0
				c-1.8,0-2.2-0.5-2.2-2.3C550.7,400.2,550.7,381.6,550.7,363C550.7,363,550.7,363,550.7,363z M579.9,344.9c0,3.8,0.1,7.5,0,11.3
				c-0.1,1.7,0.3,2.4,2.2,2.3c4.2-0.2,8.4,0,12.6-0.1c3.1-0.1,6.2,0.4,9.2-0.5c7-2.1,9.8-7,9.9-13.9c0-5.9-4.2-10.9-10.3-12
				c-7.5-1.4-15.1-0.4-22.7-0.6c-1.4,0-0.9,1.1-0.9,1.8C579.9,337,579.9,340.9,579.9,344.9z"/>
			<path id="XMLID_62_" class="st1" d="M367.2,234.1c9.4,0.1,18.2-0.3,26.9-2c10.4-2.1,20-6.4,29.7-10.4c4-1.6,8-3.2,12.2-4.2
				c8.6-2,15.8,1.1,22.7,5.8c8.1,5.6,12.2,13.8,14.9,22.8c2.4,8,4.1,16.2,3.8,24.7c-1.6-5.5-3.2-11-4.7-16.5
				c-0.7-2.6-1.7-5.1-2.8-7.6c-1.2-2.9-3.5-4.4-6.6-4.2c-6.5,0.3-12.7,1.9-18.9,3.7c-1.6,0.5-3.2,1.4-4.8,1.7c-3.8,0.8-6,3.4-7,6.7
				c-2.4,7.6-8.6,11.1-15.1,10.3c-7.7-0.9-12.8,3.7-18.1,8c-5.4,4.3-12.3,4.8-18,1.3c-3.1-1.9-3.8-3.9-2.7-7.4
				c1.8-5.5,1.4-10.7-1.5-16C374.1,245.3,370.9,239.9,367.2,234.1z"/>
			<path id="XMLID_61_" class="st1" d="M366.2,219.8c11.6,0.1,22.1-4.1,32.5-8.7c11.6-5.1,21.6-12.6,31.1-20.8
				c7.9-6.9,15.7-14,24.6-19.6c9.8-6.2,20.2-10.3,32-9.2c8.6,0.8,16.2,4,23.3,8.8c3.3,2.2,6.5,4.5,9.5,7c2.1,1.8,4,1.5,6,0.1
				c5.4-3.7,8.9-9.1,12.8-14.1c0.7-0.9,0.4-1.6-0.3-2.4c-5.1-6.3-4.1-12.8-0.8-19.5c0.8-1.7,1.8-2.1,3.4-1c0.8,0.6,1.8,0.8,2.7,1.4
				c1.3,0.7,2.2,0.6,2.9-0.8c0.8-1.7,2-1.4,3.4-0.7c5.7,2.9,8.2,7.9,9,13.9c0.4,2.8,1.1,4.5,4.3,5.6c8.3,2.9,14.2,8.8,17.6,17
				c2.5,6,1.9,7.5-4.1,10.6c-5.1,2.7-10.6,4-16.3,4.3c-2.1,0.1-2.8,0.9-3.2,2.8c-1.4,7.7-3.7,15-8.6,21.4c-2.8,3.6-6.3,6-10.2,8.1
				c-3.8,2-6.6,4.9-8.1,8.9c-1.7,4.2-4.5,7.9-5.1,12.6c-0.6,4.5-0.6,8.9,0.1,13.4c-1.7,1.3-3.2,2.6-5.5,2.8
				c-3.8,0.4-5.1-2.6-7.1-4.8c-0.8-0.9-0.9-2.3-2.5-2.6c-2.5-0.4-4.9-0.3-7.4-0.2c-1.2,0-0.6,1.3-0.7,2
				c-0.6,11.6,3.9,20.3,14.3,25.8c2.5,1.3,4.9,2.8,7.3,4.2c0.6,0.3,1.3,0.5,1,1.4c-0.4,1.1-1,0.2-1.5,0.1c-7-1.2-12.9-4.4-18.5-8.7
				c-4.7-3.7-6.3-8.8-6.9-14.3c-1.3-10.8-0.3-21.8-0.7-32.6c-0.2-5.3-0.6-10.6-1.9-15.7c-0.1-0.5-0.6-1,0.2-1.3
				c0.6-0.2,0.9,0.2,1.1,0.9c0.7,2.3,1.7,4.4,2,6.7c0.3,2,1.3,1.8,2.6,1.6c3.7-0.7,7.4-1.6,11.3-3.1c-0.4,5.5-0.7,10.8-1.9,16
				c-0.3,1.2-1.1,2-2.2,2.7c-2.4,1.5-4.5,3.4-6.7,5.2c-1,0.9-1,1.3,0.3,1.8c4,1.6,8,1.6,12,0.3c2.3-0.8,3.7-2.8,4.6-5.1
				c2.5-6.1,5-12.2,7.5-18.4c0.9-2.3,2.3-4.1,4.5-5.5c5.6-3.3,10.5-7.6,14.5-12.8c4.5-6,6.1-13.1,6.9-20.4c0.2-1.6,0.7-1.9,2.1-1.9
				c6.4-0.1,12.7-0.7,18.4-3.9c5.3-2.9,5.5-3.7,1-7.9c-5-4.7-10.2-9.2-17.3-10.4c-1.5-0.2-1.4-1.3-1.4-2.5c-0.1-5-1.6-9.5-4.8-13.4
				c-0.5-0.6-1.1-1.4-1.6-1.3c-0.9,0.1-0.9,1.2-1.2,2c-0.4,0.9-0.6,1.8-0.9,2.9c-1.6-2.1-3.5-3.6-5.7-4.7c-1.1-0.5-1.8-0.5-2.3,0.8
				c-1.9,5.3-1.4,10.3,2.7,14.4c1.9,1.8,2.1,3.2,0.6,5.5c-4,6-8,12-13.8,16.5c-0.2,0.2-0.4,0.4-0.6,0.5c-4.5,3-4.9,3-9.1-0.3
				c-5.4-4.3-11-8.2-17.2-11.3c-12.8-6.5-25.3-5.7-37.9,0.6c-8.9,4.4-16.4,10.5-23.8,17.1c-12.2,10.9-24.5,21.8-39.8,28.6
				c-13.3,6-27,9.5-41.6,8.6c-10.1-0.6-19.9-2.6-28.8-8.7c4.2-0.1,7.6,1.4,11.2,2c8.2,1.5,16.4,2.4,24.7,2.3
				C365.4,220.3,365.9,220.2,366.2,219.8z"/>
			<path id="XMLID_60_" class="st1" d="M554.2,296.8c-3.3-0.3-5.5-3.2-7.7-6c-0.9-1.2-1.4-2.7-1.9-4.2c-1.2-3.4-0.3-5.2,3.8-4.5
				c5.1,0.9,10.2,0.8,15.2,0.8c3,0,3.5,0.6,3,3.6C565.7,292.8,561,296.9,554.2,296.8z"/>
		</g>
	</g>
	<g id="XMLID_46_">
		<path id="XMLID_47_" class="st0" d="M331.3,456.7c-0.3,0.7-0.8,1.3-1.4,1.7c-0.6,0.5-1.3,0.8-2.1,1.1c-0.8,0.2-1.7,0.4-2.7,0.4
			c-1.4,0-2.7-0.2-4-0.7c-1.3-0.5-2.5-1.2-3.6-2.2l2.3-2.8c0.8,0.7,1.7,1.2,2.5,1.6c0.9,0.4,1.8,0.6,2.8,0.6c0.8,0,1.5-0.2,1.9-0.4
			c0.5-0.3,0.7-0.7,0.7-1.2v-0.1c0-0.3,0-0.5-0.1-0.7c-0.1-0.2-0.3-0.4-0.5-0.6c-0.3-0.2-0.6-0.3-1.1-0.5s-1.1-0.4-1.8-0.5
			c-0.9-0.2-1.7-0.5-2.5-0.7c-0.7-0.3-1.4-0.6-1.9-1c-0.5-0.4-0.9-0.9-1.2-1.5c-0.3-0.6-0.4-1.3-0.4-2.2v-0.1c0-0.8,0.2-1.6,0.5-2.2
			c0.3-0.7,0.7-1.2,1.3-1.7c0.6-0.5,1.2-0.8,2-1.1c0.8-0.3,1.6-0.4,2.5-0.4c1.3,0,2.5,0.2,3.6,0.6c1.1,0.4,2.1,1,3,1.7l-2.1,3
			c-0.8-0.5-1.6-1-2.4-1.3c-0.8-0.3-1.5-0.5-2.3-0.5c-0.8,0-1.3,0.1-1.7,0.4c-0.4,0.3-0.6,0.7-0.6,1.1v0.1c0,0.3,0.1,0.5,0.2,0.8
			c0.1,0.2,0.3,0.4,0.6,0.6c0.3,0.2,0.7,0.3,1.2,0.5c0.5,0.2,1.1,0.3,1.9,0.5c0.9,0.2,1.7,0.5,2.4,0.8c0.7,0.3,1.3,0.7,1.8,1.1
			c0.5,0.4,0.9,0.9,1.1,1.5c0.2,0.6,0.4,1.2,0.4,2v0.1C331.8,455.3,331.6,456.1,331.3,456.7z"/>
		<path id="XMLID_51_" class="st0" d="M348.5,455.6c-0.4,0.9-0.9,1.6-1.6,2.3c-0.7,0.7-1.5,1.2-2.4,1.5c-0.9,0.4-1.9,0.6-3,0.6
			c-1.1,0-2-0.2-3-0.6c-0.9-0.4-1.7-0.9-2.3-1.5c-0.7-0.6-1.2-1.4-1.6-2.3c-0.4-0.9-0.6-1.8-0.6-2.8v-0.1c0-1,0.2-1.9,0.6-2.8
			c0.4-0.9,0.9-1.6,1.6-2.3c0.7-0.7,1.5-1.2,2.4-1.5c0.9-0.4,1.9-0.6,3-0.6c1.1,0,2,0.2,3,0.6c0.9,0.4,1.7,0.9,2.3,1.5
			c0.7,0.6,1.2,1.4,1.6,2.3c0.4,0.9,0.6,1.8,0.6,2.8v0.1C349,453.8,348.9,454.8,348.5,455.6z M345.2,452.8c0-0.5-0.1-1-0.3-1.5
			c-0.2-0.5-0.4-0.9-0.7-1.2c-0.3-0.4-0.7-0.6-1.2-0.8c-0.4-0.2-0.9-0.3-1.5-0.3c-0.6,0-1.1,0.1-1.5,0.3c-0.4,0.2-0.8,0.5-1.1,0.8
			c-0.3,0.3-0.5,0.7-0.7,1.2c-0.2,0.5-0.2,0.9-0.2,1.5v0.1c0,0.5,0.1,1,0.3,1.5c0.2,0.5,0.4,0.9,0.7,1.2c0.3,0.4,0.7,0.6,1.1,0.8
			c0.4,0.2,0.9,0.3,1.5,0.3c0.6,0,1.1-0.1,1.5-0.3c0.4-0.2,0.8-0.5,1.1-0.8c0.3-0.3,0.5-0.7,0.7-1.2
			C345.1,453.9,345.2,453.4,345.2,452.8L345.2,452.8z"/>
		<path id="XMLID_74_" class="st0" d="M359.6,459.8h-3.5l-5.4-13.9h4.1l3.1,9.2l3.1-9.2h4.1L359.6,459.8z"/>
		<path id="XMLID_81_" class="st0" d="M380.1,453.7c0,0.1,0,0.3,0,0.5h-9.6c0.2,0.9,0.6,1.6,1.2,2c0.6,0.5,1.3,0.7,2.2,0.7
			c0.7,0,1.2-0.1,1.7-0.3c0.5-0.2,1-0.6,1.6-1.1l2.2,2c-0.7,0.8-1.4,1.4-2.4,1.9c-0.9,0.5-2,0.7-3.3,0.7c-1,0-2-0.2-2.9-0.5
			c-0.9-0.3-1.6-0.8-2.3-1.5s-1.1-1.4-1.5-2.2c-0.4-0.9-0.5-1.8-0.5-2.9v-0.1c0-1,0.2-1.9,0.5-2.8c0.3-0.9,0.8-1.6,1.4-2.3
			c0.6-0.7,1.3-1.2,2.1-1.5c0.8-0.4,1.8-0.6,2.8-0.6c1.1,0,2.1,0.2,3,0.6c0.8,0.4,1.5,1,2.1,1.7c0.6,0.7,1,1.5,1.2,2.4
			c0.3,0.9,0.4,1.8,0.4,2.8v0.1C380.1,453.4,380.1,453.5,380.1,453.7z M375.4,449.6c-0.5-0.5-1.2-0.8-2-0.8c-0.8,0-1.5,0.3-2,0.8
			s-0.8,1.2-1,2.1h5.9C376.2,450.9,375.9,450.1,375.4,449.6z"/>
		<path id="XMLID_100_" class="st0" d="M391.1,449.7c-1.3,0-2.3,0.4-3.1,1.2s-1.1,2-1.1,3.7v5.1H383v-13.8h3.9v2.8
			c0.4-0.9,0.9-1.7,1.6-2.3c0.7-0.6,1.6-0.8,2.8-0.8v4.1H391.1z"/>
		<path id="XMLID_106_" class="st0" d="M406.6,453.7c0,0.1,0,0.3,0,0.5H397c0.2,0.9,0.6,1.6,1.2,2c0.6,0.5,1.3,0.7,2.2,0.7
			c0.7,0,1.2-0.1,1.7-0.3c0.5-0.2,1-0.6,1.6-1.1l2.2,2c-0.7,0.8-1.4,1.4-2.4,1.9c-0.9,0.5-2,0.7-3.3,0.7c-1,0-2-0.2-2.9-0.5
			c-0.9-0.3-1.6-0.8-2.3-1.5c-0.6-0.6-1.1-1.4-1.5-2.2c-0.4-0.9-0.5-1.8-0.5-2.9v-0.1c0-1,0.2-1.9,0.5-2.8c0.3-0.9,0.8-1.6,1.4-2.3
			c0.6-0.7,1.3-1.2,2.1-1.5c0.8-0.4,1.8-0.6,2.8-0.6c1.1,0,2.1,0.2,3,0.6c0.8,0.4,1.5,1,2.1,1.7s1,1.5,1.2,2.4s0.4,1.8,0.4,2.8v0.1
			C406.6,453.4,406.6,453.5,406.6,453.7z M401.9,449.6c-0.5-0.5-1.2-0.8-2-0.8c-0.8,0-1.5,0.3-2,0.8s-0.8,1.2-1,2.1h5.9
			C402.7,450.9,402.4,450.1,401.9,449.6z"/>
		<path id="XMLID_121_" class="st0" d="M409.6,444.4v-3.5h4.1v3.5H409.6z M409.7,459.7v-13.8h3.9v13.8H409.7z"/>
		<path id="XMLID_124_" class="st0" d="M430.6,459.9c-0.3,0.9-0.8,1.7-1.4,2.2c-0.6,0.6-1.4,1-2.4,1.3c-1,0.3-2.1,0.4-3.4,0.4
			c-1.1,0-2.2-0.1-3.2-0.4c-1-0.2-2-0.6-2.9-1.1l1.3-2.9c0.7,0.4,1.4,0.7,2.2,0.9c0.7,0.2,1.6,0.3,2.5,0.3c1.3,0,2.3-0.3,3-1
			s1-1.6,1-2.8v-0.7c-0.6,0.7-1.2,1.3-1.9,1.6c-0.7,0.4-1.5,0.6-2.6,0.6c-0.8,0-1.6-0.1-2.3-0.4c-0.7-0.3-1.4-0.7-2-1.2
			c-0.6-0.5-1-1.2-1.3-2c-0.3-0.8-0.5-1.7-0.5-2.7v-0.1c0-1,0.2-1.9,0.5-2.7c0.3-0.8,0.8-1.5,1.4-2c0.6-0.5,1.2-1,2-1.2
			c0.7-0.3,1.5-0.4,2.3-0.4c1.1,0,1.9,0.2,2.6,0.6c0.7,0.4,1.3,0.9,1.8,1.5v-1.8h3.9v10.7C431.1,457.9,431,459,430.6,459.9z
			 M427.3,452.1c0-0.5-0.1-0.9-0.3-1.3c-0.2-0.4-0.4-0.7-0.7-1c-0.3-0.3-0.7-0.5-1.1-0.7c-0.4-0.2-0.9-0.2-1.3-0.2
			c-0.5,0-0.9,0.1-1.3,0.2c-0.4,0.2-0.8,0.4-1.1,0.7c-0.3,0.3-0.5,0.6-0.7,1c-0.2,0.4-0.3,0.8-0.3,1.3v0.1c0,1,0.3,1.7,1,2.3
			c0.6,0.6,1.4,0.9,2.4,0.9c0.5,0,0.9-0.1,1.3-0.2c0.4-0.2,0.8-0.4,1.1-0.7c0.3-0.3,0.5-0.6,0.7-1
			C427.2,453,427.3,452.6,427.3,452.1L427.3,452.1z"/>
		<path id="XMLID_127_" class="st0" d="M443.3,459.7V452c0-0.9-0.2-1.6-0.6-2.1c-0.4-0.5-1-0.7-1.7-0.7c-0.8,0-1.3,0.2-1.8,0.7
			c-0.4,0.5-0.7,1.2-0.7,2.1v7.7h-3.9v-13.8h3.9v2c0.2-0.3,0.5-0.6,0.7-0.8c0.3-0.3,0.6-0.5,0.9-0.7c0.3-0.2,0.7-0.4,1.1-0.5
			c0.4-0.1,0.8-0.2,1.3-0.2c1.5,0,2.6,0.5,3.5,1.4c0.8,0.9,1.2,2.2,1.2,3.8v8.9H443.3z"/>
		<path id="XMLID_135_" class="st0" d="M471.4,459.7l-8.7-11.4v11.4h-3.9v-18h3.6l8.4,11.1v-11.1h3.9v18H471.4z"/>
		<path id="XMLID_143_" class="st0" d="M486.7,459.7v-1.5c-0.5,0.5-1.1,1-1.7,1.3c-0.7,0.3-1.5,0.5-2.4,0.5c-0.7,0-1.3-0.1-1.8-0.3
			c-0.6-0.2-1.1-0.4-1.5-0.8c-0.4-0.4-0.8-0.8-1-1.3c-0.2-0.5-0.4-1.1-0.4-1.8v-0.1c0-0.8,0.1-1.4,0.4-2c0.3-0.5,0.7-1,1.1-1.4
			c0.5-0.4,1.1-0.6,1.7-0.8c0.7-0.2,1.4-0.3,2.2-0.3c0.7,0,1.3,0.1,1.8,0.2c0.5,0.1,1,0.2,1.5,0.4v-0.2c0-0.8-0.2-1.4-0.7-1.9
			c-0.5-0.4-1.2-0.6-2.2-0.6c-0.8,0-1.4,0.1-2,0.2c-0.6,0.1-1.2,0.3-1.8,0.6l-1-3c0.8-0.3,1.5-0.6,2.4-0.8c0.8-0.2,1.8-0.3,3-0.3
			c2.1,0,3.7,0.5,4.7,1.6c1,1,1.5,2.5,1.5,4.4v8H486.7z M486.8,454.1c-0.3-0.2-0.7-0.3-1.1-0.4c-0.4-0.1-0.9-0.1-1.3-0.1
			c-0.8,0-1.5,0.2-2,0.5c-0.5,0.3-0.7,0.8-0.7,1.4v0.1c0,0.5,0.2,0.9,0.6,1.2c0.4,0.3,0.9,0.4,1.5,0.4c0.9,0,1.7-0.2,2.2-0.7
			c0.6-0.4,0.8-1,0.8-1.7V454.1z"/>
		<path id="XMLID_146_" class="st0" d="M500.2,459.7c-0.5,0.1-1.1,0.2-1.7,0.2c-0.6,0-1.1-0.1-1.6-0.2c-0.5-0.1-0.9-0.4-1.3-0.7
			c-0.4-0.3-0.6-0.7-0.8-1.3s-0.3-1.2-0.3-2v-6.5h-1.6v-3.3h1.6v-3.5h3.9v3.5h3.2v3.3h-3.2v5.9c0,0.9,0.4,1.3,1.3,1.3
			c0.7,0,1.3-0.2,1.9-0.5v3.1C501.2,459.4,500.7,459.6,500.2,459.7z"/>
		<path id="XMLID_148_" class="st0" d="M504.6,444.4v-3.5h4.1v3.5H504.6z M504.7,459.7v-13.8h3.9v13.8H504.7z"/>
		<path id="XMLID_151_" class="st0" d="M525.9,455.6c-0.4,0.9-0.9,1.6-1.6,2.3c-0.7,0.7-1.5,1.2-2.4,1.5c-0.9,0.4-1.9,0.6-3,0.6
			c-1.1,0-2-0.2-3-0.6c-0.9-0.4-1.7-0.9-2.3-1.5c-0.7-0.6-1.2-1.4-1.6-2.3c-0.4-0.9-0.6-1.8-0.6-2.8v-0.1c0-1,0.2-1.9,0.6-2.8
			c0.4-0.9,0.9-1.6,1.6-2.3c0.7-0.7,1.5-1.2,2.4-1.5c0.9-0.4,1.9-0.6,3-0.6c1.1,0,2,0.2,3,0.6c0.9,0.4,1.7,0.9,2.3,1.5
			c0.7,0.6,1.2,1.4,1.6,2.3c0.4,0.9,0.6,1.8,0.6,2.8v0.1C526.5,453.8,526.3,454.8,525.9,455.6z M522.6,452.8c0-0.5-0.1-1-0.3-1.5
			c-0.2-0.5-0.4-0.9-0.7-1.2c-0.3-0.4-0.7-0.6-1.2-0.8c-0.4-0.2-0.9-0.3-1.5-0.3c-0.6,0-1.1,0.1-1.5,0.3c-0.4,0.2-0.8,0.5-1.1,0.8
			c-0.3,0.3-0.5,0.7-0.7,1.2c-0.2,0.5-0.2,0.9-0.2,1.5v0.1c0,0.5,0.1,1,0.3,1.5c0.2,0.5,0.4,0.9,0.7,1.2c0.3,0.4,0.7,0.6,1.1,0.8
			c0.4,0.2,0.9,0.3,1.5,0.3c0.6,0,1.1-0.1,1.5-0.3c0.4-0.2,0.8-0.5,1.1-0.8c0.3-0.3,0.5-0.7,0.7-1.2
			C522.5,453.9,522.6,453.4,522.6,452.8L522.6,452.8z"/>
		<path id="XMLID_154_" class="st0" d="M538,459.7V452c0-0.9-0.2-1.6-0.6-2.1c-0.4-0.5-1-0.7-1.7-0.7c-0.8,0-1.3,0.2-1.8,0.7
			c-0.4,0.5-0.7,1.2-0.7,2.1v7.7h-3.9v-13.8h3.9v2c0.2-0.3,0.5-0.6,0.7-0.8c0.3-0.3,0.6-0.5,0.9-0.7c0.3-0.2,0.7-0.4,1.1-0.5
			c0.4-0.1,0.8-0.2,1.3-0.2c1.5,0,2.6,0.5,3.5,1.4c0.8,0.9,1.2,2.2,1.2,3.8v8.9H538z"/>
		<path id="XMLID_156_" class="st0" d="M553.4,459.7v-1.5c-0.5,0.5-1.1,1-1.7,1.3c-0.7,0.3-1.5,0.5-2.4,0.5c-0.7,0-1.3-0.1-1.8-0.3
			c-0.6-0.2-1.1-0.4-1.5-0.8c-0.4-0.4-0.8-0.8-1-1.3c-0.2-0.5-0.4-1.1-0.4-1.8v-0.1c0-0.8,0.1-1.4,0.4-2c0.3-0.5,0.7-1,1.1-1.4
			c0.5-0.4,1.1-0.6,1.7-0.8c0.7-0.2,1.4-0.3,2.2-0.3c0.7,0,1.3,0.1,1.8,0.2c0.5,0.1,1,0.2,1.5,0.4v-0.2c0-0.8-0.2-1.4-0.7-1.9
			c-0.5-0.4-1.2-0.6-2.2-0.6c-0.8,0-1.4,0.1-2,0.2c-0.6,0.1-1.2,0.3-1.8,0.6l-1-3c0.8-0.3,1.5-0.6,2.4-0.8c0.8-0.2,1.8-0.3,3-0.3
			c2.1,0,3.7,0.5,4.7,1.6c1,1,1.5,2.5,1.5,4.4v8H553.4z M553.5,454.1c-0.3-0.2-0.7-0.3-1.1-0.4s-0.9-0.1-1.3-0.1
			c-0.8,0-1.5,0.2-2,0.5c-0.5,0.3-0.7,0.8-0.7,1.4v0.1c0,0.5,0.2,0.9,0.6,1.2c0.4,0.3,0.9,0.4,1.5,0.4c0.9,0,1.7-0.2,2.2-0.7
			c0.6-0.4,0.8-1,0.8-1.7V454.1z"/>
		<path id="XMLID_159_" class="st0" d="M560.7,459.7v-18.8h3.9v18.8H560.7z"/>
		<path id="XMLID_162_" class="st0" d="M590.1,450.7c-0.4,0.8-0.9,1.4-1.6,2c-0.7,0.5-1.4,0.9-2.3,1.2s-1.8,0.4-2.8,0.4h-3v5.4h-4
			v-18h7.3c1.1,0,2,0.2,2.9,0.4c0.8,0.3,1.6,0.7,2.2,1.3c0.6,0.5,1,1.2,1.4,2c0.3,0.8,0.5,1.6,0.5,2.5v0.1
			C590.6,449,590.4,449.9,590.1,450.7z M586.6,448c0-0.9-0.3-1.6-0.9-2c-0.6-0.5-1.4-0.7-2.3-0.7h-3.1v5.5h3.1c1,0,1.8-0.3,2.3-0.8
			C586.3,449.5,586.6,448.8,586.6,448L586.6,448z"/>
		<path id="XMLID_165_" class="st0" d="M601.2,459.7v-1.5c-0.5,0.5-1.1,1-1.7,1.3c-0.7,0.3-1.5,0.5-2.4,0.5c-0.7,0-1.3-0.1-1.8-0.3
			c-0.6-0.2-1.1-0.4-1.5-0.8c-0.4-0.4-0.8-0.8-1-1.3c-0.2-0.5-0.4-1.1-0.4-1.8v-0.1c0-0.8,0.1-1.4,0.4-2c0.3-0.5,0.7-1,1.1-1.4
			c0.5-0.4,1.1-0.6,1.7-0.8c0.7-0.2,1.4-0.3,2.2-0.3c0.7,0,1.3,0.1,1.8,0.2c0.5,0.1,1,0.2,1.5,0.4v-0.2c0-0.8-0.2-1.4-0.7-1.9
			c-0.5-0.4-1.2-0.6-2.2-0.6c-0.8,0-1.4,0.1-2,0.2c-0.6,0.1-1.2,0.3-1.8,0.6l-1-3c0.8-0.3,1.5-0.6,2.4-0.8c0.8-0.2,1.8-0.3,3-0.3
			c2.1,0,3.7,0.5,4.7,1.6c1,1,1.5,2.5,1.5,4.4v8H601.2z M601.3,454.1c-0.3-0.2-0.7-0.3-1.1-0.4c-0.4-0.1-0.9-0.1-1.3-0.1
			c-0.8,0-1.5,0.2-2,0.5c-0.5,0.3-0.7,0.8-0.7,1.4v0.1c0,0.5,0.2,0.9,0.6,1.2c0.4,0.3,0.9,0.4,1.5,0.4c0.9,0,1.7-0.2,2.2-0.7
			c0.6-0.4,0.8-1,0.8-1.7V454.1z"/>
		<path id="XMLID_168_" class="st0" d="M616.4,449.7c-1.3,0-2.3,0.4-3.1,1.2c-0.7,0.8-1.1,2-1.1,3.7v5.1h-3.9v-13.8h3.9v2.8
			c0.4-0.9,0.9-1.7,1.6-2.3c0.7-0.6,1.6-0.8,2.8-0.8v4.1H616.4z"/>
		<path id="XMLID_170_" class="st0" d="M625.5,459.7c-0.5,0.1-1.1,0.2-1.7,0.2c-0.6,0-1.1-0.1-1.6-0.2c-0.5-0.1-0.9-0.4-1.3-0.7
			c-0.4-0.3-0.6-0.7-0.8-1.3s-0.3-1.2-0.3-2v-6.5h-1.6v-3.3h1.6v-3.5h3.9v3.5h3.2v3.3h-3.2v5.9c0,0.9,0.4,1.3,1.3,1.3
			c0.7,0,1.3-0.2,1.9-0.5v3.1C626.4,459.4,626,459.6,625.5,459.7z"/>
		<path id="XMLID_172_" class="st0" d="M637.6,460c-0.3,0.7-0.5,1.3-0.8,1.8c-0.3,0.5-0.6,0.9-1,1.2c-0.4,0.3-0.7,0.5-1.2,0.7
			c-0.4,0.1-1,0.2-1.5,0.2c-0.7,0-1.4-0.1-1.9-0.3c-0.5-0.2-1.1-0.4-1.6-0.7l1.3-2.8c0.3,0.2,0.5,0.3,0.8,0.4
			c0.3,0.1,0.6,0.2,0.8,0.2c0.3,0,0.6-0.1,0.8-0.2c0.2-0.1,0.4-0.4,0.6-0.7l-5.4-13.8h4.1l3.1,9.4l3-9.4h4.1L637.6,460z"/>
	</g>
</g>
</svg>
